<?xml version="1.0" standalone="no"?>
<!DOCTYPE svg PUBLIC "-//W3C//DTD SVG 20010904//EN"
 "http://www.w3.org/TR/2001/REC-SVG-20010904/DTD/svg10.dtd">
<svg version="1.0" xmlns="http://www.w3.org/2000/svg"
 width="500.000000pt" height="500.000000pt" viewBox="0 0 500.000000 500.000000"
 preserveAspectRatio="xMidYMid meet">
<metadata>
Created by potrace 1.14, written by Peter Selinger 2001-2017
</metadata>
<g transform="translate(0.000000,500.000000) scale(0.100000,-0.100000)"
fill="#000000" stroke="none">
<path d="M2545 4380 c-7 -11 -57 -19 -145 -24 -86 -5 -129 -13 -146 -27 -7 -5
-39 -11 -72 -12 -33 -1 -58 -5 -55 -9 2 -4 -13 -16 -34 -25 -21 -10 -40 -21
-43 -24 -3 -3 -19 -11 -37 -18 -17 -7 -46 -24 -64 -37 -18 -13 -47 -26 -64
-30 -24 -4 -31 -11 -31 -27 1 -15 -5 -22 -19 -22 -15 0 -19 -6 -18 -23 2 -13
-1 -21 -7 -17 -6 3 -10 -1 -10 -9 0 -9 -4 -16 -10 -16 -5 0 -10 -7 -10 -16 0
-9 -9 -18 -20 -21 -11 -3 -23 -16 -26 -29 -3 -13 -10 -24 -15 -24 -5 0 -9 -6
-9 -14 0 -7 -7 -19 -15 -26 -8 -7 -15 -19 -15 -27 0 -8 -11 -29 -24 -46 -32
-41 -48 -84 -48 -125 0 -18 -2 -31 -6 -28 -8 8 -32 -44 -34 -73 -2 -30 -16
-53 -29 -45 -5 3 -9 0 -9 -5 0 -6 5 -11 11 -11 5 0 9 -8 7 -17 -1 -10 1 -24 6
-32 7 -11 4 -13 -14 -8 -17 4 -20 3 -11 -6 17 -17 14 -32 -15 -63 -23 -25 -26
-39 -29 -109 -2 -47 2 -86 8 -93 13 -16 17 -113 5 -106 -10 6 -11 -80 0 -90 4
-4 7 -11 8 -14 0 -4 3 -14 7 -22 3 -8 5 -28 4 -45 -1 -16 4 -35 12 -41 7 -6
13 -30 14 -57 0 -36 4 -47 16 -47 14 0 14 -2 1 -9 -8 -6 -17 -8 -21 -5 -17 10
24 -215 46 -251 7 -11 16 -36 19 -57 6 -35 5 -37 -31 -48 -21 -7 -43 -16 -48
-21 -6 -4 -17 -4 -25 1 -8 5 -23 7 -33 4 -10 -3 -23 -2 -30 3 -7 5 -22 10 -34
11 -16 0 -20 -4 -16 -15 4 -10 2 -14 -5 -10 -6 4 -18 -9 -28 -32 -16 -37 -44
-63 -44 -41 0 6 -11 10 -25 10 -14 0 -25 -5 -25 -11 0 -8 -4 -8 -14 0 -9 8
-15 8 -18 2 -1 -6 -15 -12 -30 -13 -16 -1 -28 -5 -28 -8 0 -4 -8 -15 -18 -26
-23 -25 -26 -50 -7 -57 9 -4 12 -13 9 -22 -4 -9 -13 -14 -20 -11 -8 3 -14 0
-14 -7 0 -13 -80 -63 -94 -59 -5 2 -12 -2 -16 -8 -3 -6 -29 -12 -56 -14 -37
-3 -50 -8 -53 -21 -2 -13 -5 -14 -11 -6 -5 9 -9 8 -14 -4 -4 -12 0 -18 14 -22
22 -6 27 -29 8 -35 -6 -2 -12 -15 -13 -29 -1 -15 -11 -29 -29 -37 -24 -12 -26
-18 -20 -44 5 -26 4 -30 -10 -25 -11 5 -16 1 -16 -13 0 -11 -6 -20 -12 -20
-25 0 -88 -21 -100 -33 -15 -14 -33 -16 -44 -4 -13 13 -21 8 -34 -23 -7 -16
-17 -30 -22 -30 -6 0 -8 -7 -5 -15 4 -8 2 -17 -4 -20 -16 -11 40 -48 62 -42
15 4 19 2 15 -8 -3 -8 3 -16 12 -18 16 -4 15 -5 0 -6 -10 0 -18 -6 -18 -12 0
-5 10 -9 21 -7 15 2 23 -3 25 -15 1 -9 -2 -14 -8 -11 -5 3 -12 -4 -15 -16 -3
-12 -11 -19 -19 -16 -7 3 -15 0 -18 -7 -3 -9 -5 -8 -5 1 -1 10 -6 10 -21 2
-22 -12 -28 -35 -7 -27 6 2 20 0 29 -4 10 -6 19 -5 23 1 14 23 21 7 15 -35 -4
-25 -4 -45 -1 -45 3 0 -1 -4 -9 -10 -9 -6 -20 -5 -29 3 -10 8 -13 8 -8 1 4 -7
0 -15 -9 -18 -8 -3 -13 -2 -10 3 3 5 -3 11 -14 14 -12 3 -24 -1 -30 -11 -7
-12 -9 -13 -10 -3 0 8 -9 3 -21 -13 -11 -14 -27 -26 -34 -26 -9 0 -12 -6 -9
-15 8 -20 -14 -45 -32 -38 -8 3 -14 2 -12 -3 2 -5 -1 -10 -7 -12 -21 -7 -15
17 10 40 l25 24 -27 -2 c-51 -2 -54 -4 -69 -39 -16 -38 -18 -73 -6 -93 7 -10
14 -10 37 2 16 8 32 13 37 10 4 -3 11 1 14 10 3 8 14 13 25 11 10 -2 21 0 24
6 4 5 20 9 38 9 17 0 48 12 69 26 39 27 68 26 32 -1 -19 -14 -19 -14 1 -15 14
-1 10 -5 -14 -16 -19 -8 -31 -17 -28 -21 4 -3 13 0 21 6 9 8 16 8 20 2 4 -5 2
-12 -4 -16 -6 -4 -8 -10 -5 -15 3 -5 -14 -28 -38 -52 -37 -37 -67 -76 -67 -90
0 -2 16 -4 35 -5 24 -1 35 3 35 13 0 10 8 13 29 9 17 -3 33 -1 36 5 9 15 25
12 25 -6 0 -8 5 -12 10 -9 6 4 8 11 5 16 -4 5 -1 9 4 9 6 0 11 -5 11 -11 0 -8
5 -7 16 2 10 8 13 21 9 36 -5 21 -3 22 13 12 18 -11 18 -13 -1 -51 -17 -34
-23 -39 -46 -34 -21 5 -23 4 -8 -4 12 -8 15 -18 11 -36 -4 -14 -2 -24 5 -25
26 -3 30 -4 37 -12 4 -4 3 -7 -3 -7 -6 0 -13 -8 -15 -17 -4 -13 2 -18 19 -19
17 -2 25 5 29 23 4 15 2 28 -5 32 -6 4 12 8 40 9 40 1 49 -2 40 -11 -7 -7 -17
-12 -23 -12 -24 0 -18 -23 7 -29 19 -5 25 -12 21 -22 -3 -9 -6 -20 -6 -25 0
-5 -7 -9 -16 -9 -11 0 -14 6 -9 23 5 20 5 20 -5 4 -9 -15 -8 -22 4 -36 20 -22
20 -35 0 -27 -8 3 -13 2 -10 -3 3 -5 -6 -17 -21 -27 -14 -11 -33 -28 -42 -38
-9 -11 -28 -32 -44 -47 -16 -16 -23 -30 -17 -34 5 -3 10 -1 10 4 0 6 5 10 12
8 6 -1 17 9 25 23 l13 25 0 -24 c0 -18 4 -22 20 -18 11 3 20 1 20 -4 0 -15 15
-10 37 11 15 14 23 16 26 7 2 -6 3 0 1 15 -2 19 0 26 10 22 7 -3 16 2 19 10 5
11 0 16 -13 16 -25 0 -22 28 13 104 15 32 27 62 27 67 0 5 5 9 11 9 12 0 39
25 39 35 0 10 53 50 62 48 4 -2 5 4 2 12 -4 8 -2 15 4 15 6 0 13 -6 15 -12 4
-10 6 -10 6 0 1 6 8 12 17 12 8 0 13 3 10 8 -2 4 9 15 25 24 24 14 29 15 29 3
0 -8 6 -15 13 -15 8 0 7 -3 -3 -10 -9 -6 -17 -5 -22 3 -5 8 -8 7 -8 -5 0 -9 5
-18 12 -20 6 -2 -4 -20 -24 -41 -24 -24 -38 -33 -41 -25 -3 8 -6 6 -6 -4 -1
-10 -8 -18 -17 -18 -8 0 -12 -4 -9 -10 3 -5 1 -10 -4 -10 -6 0 -11 -8 -11 -17
0 -14 -2 -15 -9 -5 -6 10 -10 8 -14 -8 -3 -12 -9 -20 -14 -18 -11 6 -38 -24
-39 -45 -1 -9 2 -14 7 -11 17 10 9 -13 -11 -31 -19 -17 -19 -19 -4 -36 9 -10
21 -16 25 -13 17 10 9 -16 -11 -36 l-20 -20 -11 22 c-8 20 -9 18 -4 -11 3 -19
0 -40 -7 -48 -9 -11 -9 -16 1 -23 17 -10 -2 -22 -22 -14 -8 3 -22 -3 -32 -12
-16 -17 -16 -18 1 -31 10 -7 14 -13 10 -13 -5 0 -2 -8 5 -17 10 -11 10 -14 1
-9 -6 4 -12 2 -12 -3 0 -16 12 -13 40 9 27 21 55 27 44 8 -4 -7 -3 -8 4 -4 15
9 3 38 -13 32 -9 -3 -12 3 -10 20 3 32 15 44 15 16 0 -14 5 -20 14 -16 9 3 12
12 9 21 -4 11 -3 14 6 9 14 -9 40 20 41 45 0 9 7 20 16 23 8 3 12 2 9 -4 -10
-17 4 -11 25 10 11 11 21 35 23 53 2 27 6 33 20 29 12 -3 20 2 24 17 3 11 10
21 15 21 6 0 4 8 -3 17 -8 10 -9 14 -2 10 6 -4 14 -3 18 3 3 5 2 10 -4 10 -6
0 -8 7 -4 16 3 8 12 13 19 10 10 -4 14 4 14 30 0 21 -4 33 -10 29 -6 -3 -7 1
-4 9 3 9 10 13 16 10 5 -3 16 2 23 12 19 25 19 40 0 24 -17 -14 -21 0 -4 17
15 15 39 6 33 -12 -4 -9 2 -11 22 -7 22 4 26 2 21 -12 -4 -9 -2 -16 4 -16 6 0
8 -9 4 -20 -4 -12 -2 -20 5 -20 15 0 -20 -35 -44 -44 -18 -6 -18 -8 4 -31 14
-15 35 -25 51 -25 32 0 52 -39 55 -109 1 -25 2 -59 3 -74 1 -16 5 -25 11 -22
5 3 7 27 4 55 -5 44 -3 50 13 50 11 0 14 3 7 8 -6 4 -14 19 -17 34 -4 14 -10
34 -13 45 -5 15 -4 15 5 3 9 -13 11 -12 11 3 0 11 4 15 12 11 7 -5 8 -3 4 5
-5 7 -14 10 -22 7 -19 -7 -17 1 6 26 23 25 26 48 8 48 -10 0 -9 3 1 9 7 5 10
14 7 20 -4 6 0 14 8 17 9 3 13 10 10 15 -3 5 -2 14 2 21 5 8 10 6 14 -8 6 -15
9 -11 20 21 7 22 16 42 20 45 8 6 44 71 45 82 0 3 3 10 8 14 4 4 7 14 7 23 -1
13 -3 12 -15 -3 -16 -21 -21 -10 -6 13 13 20 33 3 56 -49 10 -22 22 -40 26
-40 5 0 6 -6 3 -14 -3 -7 2 -16 10 -19 9 -4 16 -15 16 -26 0 -11 4 -23 10 -26
6 -4 7 1 3 11 -4 12 -3 15 5 10 7 -4 12 -14 12 -22 0 -8 5 -12 10 -9 6 4 7 11
4 17 -4 7 -2 8 5 4 6 -4 9 -11 6 -16 -3 -4 6 -11 20 -14 21 -5 24 -10 16 -25
-6 -10 -8 -21 -5 -24 3 -3 1 -15 -6 -26 -7 -14 -7 -21 0 -21 5 0 10 8 10 18 1
16 2 15 15 -2 8 -10 12 -23 8 -28 -3 -6 3 -8 13 -6 10 2 20 12 21 23 2 11 0
14 -3 7 -5 -10 -9 -10 -20 -1 -15 12 -19 45 -6 53 13 8 35 -11 28 -23 -4 -6
-1 -11 8 -11 8 0 17 6 20 13 3 6 3 2 0 -10 -3 -14 -1 -23 6 -23 6 0 10 -6 8
-13 -5 -22 25 -87 39 -87 15 0 17 16 3 25 -15 9 -12 65 3 65 7 0 8 3 2 8 -5 4
-11 12 -12 17 -1 6 -4 26 -8 46 -5 29 -3 38 10 43 12 4 16 2 12 -8 -4 -10 -1
-13 7 -10 14 5 17 94 3 94 -4 0 -6 3 -5 8 1 4 -1 26 -5 50 -5 30 -11 41 -20
36 -6 -5 -5 1 3 11 14 17 13 18 -2 12 -22 -8 -43 25 -53 81 -10 59 1 52 21
-13 11 -33 23 -55 32 -55 10 0 12 7 8 25 -4 14 -4 25 -1 25 10 0 90 -45 98
-55 19 -23 -6 53 -29 86 -24 35 -33 76 -14 64 17 -11 11 11 -8 28 -10 10 -22
14 -27 10 -4 -5 -5 -2 -1 4 4 7 -2 33 -13 58 -11 25 -18 52 -15 59 3 8 1 17
-5 20 -6 4 -8 13 -4 21 3 11 23 -10 59 -62 30 -42 61 -81 69 -86 8 -4 15 -12
15 -17 0 -12 52 -89 84 -123 14 -15 26 -36 26 -45 0 -10 3 -13 8 -7 6 10 25
13 108 19 16 2 51 -2 77 -9 45 -11 65 -6 53 14 -4 5 3 7 13 4 13 -3 18 -11 14
-21 -4 -14 -2 -14 10 1 9 11 18 14 21 8 4 -5 15 -8 26 -6 11 2 20 0 20 -6 0
-5 -6 -9 -14 -9 -13 0 -31 -27 -28 -42 1 -5 -2 -8 -8 -8 -5 0 -10 9 -10 20 0
11 5 20 12 20 6 0 8 3 5 6 -4 4 -12 2 -19 -3 -16 -12 -127 -35 -138 -28 -5 3
-11 1 -14 -4 -8 -12 35 -57 62 -66 12 -3 22 -11 22 -16 0 -6 9 -7 20 -4 16 5
20 2 20 -14 0 -12 -7 -21 -15 -21 -17 0 -20 -26 -5 -35 6 -4 9 -20 6 -36 -4
-25 -2 -28 10 -18 11 9 14 8 15 -7 0 -11 3 -14 6 -6 7 19 23 14 16 -5 -3 -10
4 -5 17 10 12 15 24 26 27 23 6 -6 50 40 71 76 9 16 20 28 24 28 4 0 8 6 9 13
0 15 73 72 195 154 88 59 116 83 96 83 -6 0 -12 -7 -16 -15 -3 -8 -12 -15 -20
-15 -9 0 20 36 64 79 54 53 82 89 86 110 11 51 53 39 67 -20 5 -21 12 -25 39
-24 18 1 45 -5 61 -12 30 -15 32 -14 16 21 -6 13 -17 22 -24 20 -7 -3 -21 11
-32 33 -59 114 -77 142 -94 146 -18 5 -57 -12 -142 -61 -36 -21 -100 -33 -68
-13 7 5 10 15 7 22 -4 8 -1 6 7 -3 8 -10 18 -18 23 -18 4 0 3 5 -4 12 -16 16
-16 42 0 32 7 -5 9 -2 5 8 -3 9 0 21 6 27 7 7 -10 1 -38 -12 -27 -14 -61 -28
-75 -32 -23 -7 -24 -7 -10 10 14 17 13 18 -4 8 -13 -7 -28 -8 -45 -2 -14 6
-34 9 -45 7 -12 -1 -27 1 -34 6 -8 5 -18 4 -24 -2 -8 -8 -16 -4 -28 11 -15 18
-20 19 -34 8 -14 -12 -16 -12 -10 4 5 13 4 16 -4 11 -7 -4 -12 -3 -12 3 0 6
-16 13 -35 17 -26 4 -35 11 -35 26 0 10 -4 17 -9 14 -13 -9 -83 23 -76 34 10
16 -6 34 -16 19 -6 -10 -11 -11 -16 -3 -5 6 -16 13 -25 17 -10 3 -18 16 -18
28 0 12 -8 23 -20 26 -11 3 -20 13 -20 23 0 10 -3 25 -6 33 -4 11 1 13 20 10
21 -4 26 -1 26 16 0 11 5 21 11 21 6 0 9 -7 5 -15 -3 -8 0 -15 7 -15 8 0 7 -3
-2 -9 -12 -8 -8 -11 15 -17 16 -4 34 -9 39 -13 20 -11 34 -9 40 7 5 13 7 13
19 -3 9 -12 15 -14 20 -7 4 6 14 8 22 5 9 -3 19 -1 23 5 7 12 51 24 94 26 15
0 27 6 27 11 0 6 4 4 9 -4 8 -13 12 -13 27 0 13 11 18 11 21 2 7 -19 20 -16
44 8 28 28 19 43 -35 61 -37 12 -46 13 -50 1 -3 -7 -10 -13 -16 -13 -6 0 -9 4
-6 9 3 5 -10 12 -29 15 -41 8 -101 56 -69 56 10 0 32 -7 48 -15 33 -17 50 -19
41 -5 -6 9 51 16 99 11 11 -1 35 6 54 15 19 9 58 18 86 21 96 8 210 12 218 7
4 -3 3 -15 -3 -27 -9 -20 -9 -20 4 -5 8 10 17 15 20 11 4 -3 7 1 7 10 0 10 -4
17 -10 17 -5 0 -10 5 -10 11 0 6 9 9 19 6 29 -7 36 22 8 33 -29 12 -57 35 -57
47 0 15 -44 53 -62 53 -8 0 -25 9 -38 20 -25 21 -38 24 -57 12 -9 -6 -7 -12 7
-25 11 -9 20 -22 20 -29 0 -7 -12 2 -26 20 -21 26 -32 32 -62 32 -30 -1 -45
-9 -82 -45 -50 -50 -69 -55 -89 -24 -11 19 -11 21 3 16 10 -4 13 -1 10 8 -3 8
-12 11 -20 8 -10 -3 -16 5 -20 26 -4 17 -10 34 -15 37 -4 2 -5 12 -2 20 3 8 0
26 -7 39 -8 14 -10 37 -6 62 15 83 15 197 -1 226 -14 28 -12 68 7 112 4 11 13
34 19 50 7 17 21 41 31 55 19 23 21 24 31 8 5 -10 18 -18 28 -18 21 0 46 -26
56 -58 3 -12 11 -19 17 -16 6 4 9 -8 8 -32 -4 -67 -1 -84 17 -84 9 0 32 -12
51 -26 44 -35 142 -65 176 -56 25 7 23 8 -24 25 -27 10 -50 22 -50 26 0 12 45
22 64 15 9 -3 27 1 41 10 13 9 38 16 54 16 16 0 32 4 36 9 3 6 -22 10 -62 10
-38 0 -77 2 -88 4 -11 3 -39 8 -62 12 -24 4 -46 12 -50 17 -4 8 2 9 18 5 13
-4 51 -12 83 -18 54 -11 60 -11 72 6 8 10 14 27 14 37 0 22 18 23 49 2 13 -10
21 -23 18 -34 -3 -13 1 -16 19 -12 13 2 24 8 24 12 0 4 6 8 13 7 6 0 26 1 42
2 25 1 28 4 15 14 -8 7 -32 33 -52 58 -29 36 -46 48 -75 53 -21 4 -47 10 -58
13 -18 5 -18 6 5 15 16 6 26 5 28 -1 2 -6 8 -11 13 -11 6 0 5 8 -1 20 -6 11
-8 21 -5 21 13 3 21 6 35 13 19 8 46 4 83 -14 28 -13 32 -21 20 -34 -16 -15
-10 -38 12 -46 13 -5 28 -17 34 -27 6 -10 11 -13 11 -6 0 7 7 10 15 7 9 -4 15
0 15 10 0 9 7 16 16 16 11 0 14 5 10 16 -3 9 -6 19 -6 23 0 4 -10 13 -22 18
-13 6 -38 24 -56 39 -18 15 -39 29 -45 31 -7 1 -34 8 -62 14 -27 7 -70 13 -95
15 -176 10 -239 16 -263 24 -22 7 -29 6 -34 -6 -3 -8 -10 -14 -17 -13 -29 5
-67 -15 -72 -37 -3 -13 -11 -24 -16 -24 -6 0 -8 -6 -5 -14 5 -12 -11 -26 -30
-26 -2 0 -2 21 1 48 4 39 4 43 -5 22 -6 -14 -12 -34 -15 -44 -7 -37 -21 -38
-54 -4 -19 18 -37 32 -42 31 -4 -2 -7 0 -7 5 7 41 -39 84 -103 96 -13 2 -39
10 -58 18 -19 8 -45 14 -57 13 -13 -1 -23 2 -23 6 0 5 -11 11 -25 15 -17 4
-25 13 -26 28 0 11 -3 15 -6 9 -9 -24 -23 -13 -17 13 5 19 4 25 -5 20 -6 -4
-11 -1 -11 6 1 18 26 49 33 41 4 -3 8 5 9 18 0 13 2 30 2 38 1 8 6 16 12 18
18 6 -28 92 -52 99 l-22 6 24 26 c33 35 42 72 20 84 -11 6 -14 17 -10 34 5 20
2 24 -14 24 -12 0 -24 5 -28 12 -4 6 -3 8 4 4 6 -3 13 -2 17 4 5 9 -15 15 -37
11 -5 0 -8 4 -8 10 0 7 10 9 26 5 17 -5 23 -3 19 4 -3 5 -13 10 -21 10 -11 0
-13 6 -9 21 5 14 3 19 -4 15 -13 -8 -58 31 -47 41 4 4 12 0 17 -10 6 -9 14
-17 20 -17 9 0 -18 49 -34 61 -4 3 0 12 9 20 16 12 17 12 11 -3 -3 -10 -2 -18
3 -18 10 0 12 6 14 40 1 17 70 34 104 25 15 -4 22 -1 22 9 0 11 8 12 36 6 27
-6 43 -5 59 6 19 12 23 12 28 1 3 -9 19 -13 48 -11 24 1 50 -3 57 -8 9 -8 17
-6 27 8 11 13 15 15 13 4 -4 -18 43 -15 54 4 6 8 8 8 8 0 0 -7 7 -15 16 -18 8
-3 13 -2 10 2 -3 5 4 16 15 25 13 11 19 13 19 4 0 -6 5 -19 10 -27 8 -13 13
-11 33 13 14 15 36 28 51 29 14 1 26 6 26 11 0 5 7 3 16 -4 14 -11 19 -10 37
11 l20 25 -5 -32 c-5 -38 -5 -38 16 -17 11 11 16 12 16 3 0 -7 6 -4 15 7 14
18 14 18 15 -5 l0 -24 27 29 c15 17 24 22 20 12 -3 -10 -4 -18 0 -18 3 0 12 8
20 18 13 16 14 15 8 -5 -4 -14 -2 -23 5 -23 6 0 12 6 14 13 20 70 30 96 37 91
5 -3 9 -15 9 -27 1 -19 2 -20 10 -6 6 11 6 28 -1 48 -10 28 -8 33 12 51 21 17
25 17 36 4 10 -13 13 -12 28 8 17 23 17 23 12 -12 -6 -43 -28 -102 -46 -124
-11 -13 -11 -22 -2 -42 8 -19 8 -24 0 -18 -8 4 -9 3 -5 -4 4 -7 14 -12 22 -12
10 0 14 12 14 45 0 51 19 103 31 83 5 -8 13 -5 28 13 19 22 20 23 21 4 0 -23
-13 -47 -26 -46 -5 1 -9 -7 -9 -16 0 -10 -7 -23 -15 -30 -10 -8 -11 -12 -3
-13 7 0 10 -7 6 -16 -3 -9 -1 -19 4 -23 5 -3 15 -15 21 -26 10 -17 11 -15 6
13 -4 21 -3 32 5 32 6 0 11 -4 11 -10 0 -5 6 -7 13 -5 12 5 37 -37 37 -62 0
-16 12 -17 28 -1 23 23 72 14 72 -12 0 -13 -38 -18 -50 -6 -8 8 -9 5 -2 -14 6
-14 14 -24 19 -23 4 1 21 5 37 9 l29 7 -22 -22 -21 -21 20 -20 c27 -27 44 -27
30 0 -14 26 -4 44 14 27 8 -6 12 -15 9 -19 -2 -5 0 -8 4 -8 5 0 17 -6 27 -13
18 -13 18 -15 1 -41 -17 -26 -17 -27 2 -49 28 -30 33 -78 11 -101 -9 -10 -16
-30 -16 -45 1 -14 0 -32 -3 -40 -3 -11 8 -14 51 -12 43 1 51 -1 37 -9 -9 -6
-22 -8 -27 -5 -6 3 -10 -3 -10 -14 0 -11 5 -23 10 -26 6 -4 8 -11 4 -16 -3 -5
-10 -6 -16 -3 -6 4 -6 -2 1 -15 15 -27 7 -27 -21 1 -29 29 -36 7 -9 -31 27
-38 27 -41 -9 -41 -32 0 -34 -5 -43 -87 -3 -24 -1 -45 4 -48 4 -3 8 -20 8 -38
-1 -18 4 -45 12 -62 17 -41 24 -148 16 -263 -5 -61 -3 -73 9 -68 8 3 14 0 14
-7 0 -21 30 31 36 62 5 24 3 31 -10 31 -22 0 -20 9 9 32 27 21 34 41 11 32
-11 -4 -14 0 -10 20 3 20 1 24 -11 20 -22 -9 -18 9 5 24 11 7 20 21 20 33 0
11 -4 17 -10 14 -19 -12 -10 7 25 49 23 29 35 53 35 74 0 17 5 34 10 37 6 4 8
21 4 42 -5 26 -4 34 5 29 14 -9 14 -1 0 47 -7 25 -7 42 0 50 6 8 4 30 -6 67
-8 30 -15 96 -15 145 -1 82 -19 172 -38 185 -4 3 -10 29 -13 59 -4 33 -16 68
-32 93 -15 22 -24 46 -21 53 4 12 -43 50 -99 80 -11 6 -19 18 -19 27 1 10 -4
14 -12 11 -10 -4 -14 3 -14 21 0 15 -7 29 -15 32 -8 4 -15 10 -15 16 0 17 -26
36 -114 83 -47 26 -86 41 -86 35 0 -6 -10 -2 -22 10 -12 11 -28 20 -35 20 -7
0 -13 6 -13 13 0 9 -3 8 -9 -2 -7 -10 -30 -2 -111 38 l-102 52 -43 -14 c-38
-14 -43 -13 -53 4 -11 18 -68 24 -77 9z m456 -182 c-3 -21 -6 -26 -9 -15 -3
17 3 47 11 47 2 0 1 -15 -2 -32z m-161 -53 c0 -25 -4 -35 -16 -35 -11 0 -14 5
-10 16 3 9 6 24 6 35 0 10 5 19 10 19 6 0 10 -16 10 -35z m87 -37 c-3 -8 -6
-5 -6 6 -1 11 2 17 5 13 3 -3 4 -12 1 -19z m-127 -73 c0 -9 -6 -12 -15 -9 -8
4 -15 10 -15 15 0 5 7 9 15 9 8 0 15 -7 15 -15z m27 -17 c-3 -8 -6 -5 -6 6 -1
11 2 17 5 13 3 -3 4 -12 1 -19z m353 6 c0 -8 -5 -12 -10 -9 -6 4 -8 11 -5 16
9 14 15 11 15 -7z m-1092 -368 c-7 -8 -15 -12 -17 -11 -5 6 10 25 20 25 5 0 4
-6 -3 -14z m-273 -56 c3 -5 1 -10 -4 -10 -6 0 -11 5 -11 10 0 6 2 10 4 10 3 0
8 -4 11 -10z m-17 -378 c2 -7 -5 -12 -15 -13 -10 0 -13 -3 -5 -6 17 -7 15 -30
-4 -37 -21 -8 -33 2 -15 13 7 5 10 14 6 20 -9 16 2 44 17 39 6 -2 14 -10 16
-16z m142 -112 c0 -5 -7 -10 -16 -10 -8 0 -12 5 -9 10 3 6 10 10 16 10 5 0 9
-4 9 -10z m1079 -151 c39 -8 56 -18 73 -42 l23 -32 -25 18 c-24 17 -58 34
-110 55 -33 14 -22 14 39 1z m-54 -39 c8 -13 -5 -13 -25 0 -13 8 -13 10 2 10
9 0 20 -4 23 -10z m-691 -64 c3 -12 6 -28 6 -36 0 -13 -1 -13 -10 0 -11 18
-18 11 -30 -29 -6 -22 -5 -31 3 -31 8 0 8 -3 -1 -12 -7 -7 -12 -18 -12 -26 0
-17 -49 -82 -62 -82 -6 0 -19 -11 -30 -25 -56 -72 -201 -74 -215 -4 -3 16 -9
27 -13 24 -4 -2 -5 7 -2 22 4 21 2 25 -12 20 -9 -4 -16 -2 -16 3 0 6 5 10 12
10 7 0 5 6 -4 18 -20 22 -32 62 -20 62 5 0 13 -10 17 -22 7 -22 7 -22 12 -3
10 40 24 47 78 40 100 -13 141 -14 180 -3 l40 10 -52 24 c-49 23 -75 42 -37
27 10 -4 22 0 28 10 11 14 42 21 108 23 19 0 28 -5 32 -20z m-567 -8 c-3 -8
-6 -5 -6 6 -1 11 2 17 5 13 3 -3 4 -12 1 -19z m628 -378 c10 -11 13 -20 7 -20
-6 0 -16 9 -22 20 -6 11 -9 20 -7 20 2 0 12 -9 22 -20z m492 -66 c-3 -3 -12
-4 -19 -1 -8 3 -5 6 6 6 11 1 17 -2 13 -5z m46 -31 c30 -9 18 -21 -15 -14 -17
4 -34 13 -36 20 -3 10 0 12 14 6 11 -4 27 -10 37 -12z m-35 -69 c2 -1 -1 -5
-6 -8 -5 -3 -20 6 -33 21 l-24 26 30 -19 c17 -10 31 -19 33 -20z m23 9 c13
-17 13 -17 -6 -3 -11 8 -22 16 -24 17 -2 2 0 3 6 3 6 0 17 -8 24 -17z m-75
-30 c-6 -6 -36 9 -36 18 0 5 9 4 20 -3 10 -7 18 -14 16 -15z m-649 -259 c-2
-2 -12 -1 -22 3 -18 6 -18 7 1 13 17 7 33 -5 21 -16z m788 -295 c-3 -8 -17
-19 -31 -26 -23 -11 -24 -10 -12 5 15 20 42 42 46 38 1 -2 0 -9 -3 -17z m-295
1 c-8 -5 -24 -9 -35 -9 l-20 0 20 9 c11 5 27 9 35 9 13 1 13 0 0 -9z m-1690
-70 c0 -5 -5 -10 -11 -10 -5 0 -7 5 -4 10 3 6 8 10 11 10 2 0 4 -4 4 -10z
m1810 -130 c0 -11 -42 -52 -48 -46 -3 4 38 56 45 56 2 0 3 -4 3 -10z m-2036
-47 c-5 -5 -12 -12 -16 -18 -4 -6 -8 -2 -8 8 0 9 7 17 17 17 9 0 12 -3 7 -7z
m925 -29 c17 11 33 -64 16 -76 -16 -12 -25 -9 -25 7 0 9 -7 18 -15 21 -8 4
-12 11 -8 16 3 6 6 25 5 42 0 29 1 29 9 8 5 -13 13 -21 18 -18z m1044 5 c-3
-12 0 -25 7 -29 9 -5 9 -9 1 -14 -6 -4 -11 -2 -11 3 0 21 -19 11 -22 -11 -2
-15 -10 -23 -23 -23 -33 0 -32 12 5 54 39 46 51 51 43 20z m-553 -95 c0 -8
-19 -13 -24 -6 -3 5 1 9 9 9 8 0 15 -2 15 -3z m-480 -14 c0 -5 -5 -10 -11 -10
-5 0 -7 5 -4 10 3 6 8 10 11 10 2 0 4 -4 4 -10z m-237 -27 c-7 -2 -10 -10 -7
-16 6 -16 -59 -123 -73 -120 -6 1 -14 -10 -18 -25 -7 -28 -21 -42 -44 -42 -8
0 -11 6 -7 16 3 8 2 12 -4 9 -14 -9 -12 7 4 28 8 10 12 27 9 37 -7 25 12 26
27 3 11 -17 11 -17 6 0 -3 11 0 17 10 17 11 0 13 6 9 21 -5 16 -4 19 6 14 9
-6 11 -2 7 13 -4 12 -2 22 3 22 5 0 9 6 9 14 0 9 7 13 19 11 11 -2 22 3 26 12
5 13 8 14 18 3 9 -10 9 -14 0 -17z m-997 -9 c-9 -9 -20 -14 -23 -10 -4 3 2 13
13 20 25 18 31 12 10 -10z m771 -48 c-10 -43 -12 -45 -39 -39 -23 5 -30 2 -34
-13 -3 -11 -16 -27 -30 -37 -38 -28 -28 -3 14 35 21 19 42 43 45 52 9 22 28
11 21 -12 -6 -21 12 16 20 41 11 34 13 16 3 -27z m504 7 c1 -16 1 -32 0 -37
-1 -4 4 -14 10 -22 9 -11 8 -14 -4 -14 -8 0 -17 -3 -20 -7 -2 -5 -2 -3 -1 4 2
6 -4 17 -12 24 -10 8 -12 15 -4 23 5 5 10 20 10 33 0 33 20 29 21 -4z m-748
-20 c3 -14 -2 -41 -9 -59 -8 -19 -12 -34 -9 -34 4 0 -1 -10 -9 -22 -21 -29
-21 -62 -1 -54 8 3 15 2 15 -3 0 -5 -9 -11 -21 -14 -12 -3 -19 -3 -16 0 10 9
-17 30 -33 26 -30 -8 -38 35 -16 81 11 23 24 43 28 44 5 2 15 19 23 38 16 39
40 38 48 -3z m363 -8 c-3 -9 -10 -13 -16 -10 -6 4 -5 11 3 20 15 16 22 11 13
-10z m484 -135 c0 -5 -4 -10 -10 -10 -5 0 -10 5 -10 10 0 6 5 10 10 10 6 0 10
-4 10 -10z m-683 -192 c-3 -8 -6 -5 -6 6 -1 11 2 17 5 13 3 -3 4 -12 1 -19z
m-107 -38 c0 -5 -5 -10 -11 -10 -5 0 -7 5 -4 10 3 6 8 10 11 10 2 0 4 -4 4
-10z m-87 -190 c3 -11 1 -18 -4 -14 -5 3 -9 12 -9 20 0 20 7 17 13 -6z"/>
<path d="M1330 1199 c0 -5 5 -7 10 -4 6 3 10 8 10 11 0 2 -4 4 -10 4 -5 0 -10
-5 -10 -11z"/>
<path d="M1276 1175 c-4 -13 -2 -14 14 -5 23 13 26 20 6 20 -8 0 -16 -7 -20
-15z"/>
<path d="M2976 4023 c-6 -14 -5 -15 5 -6 7 7 10 15 7 18 -3 3 -9 -2 -12 -12z"/>
<path d="M2975 3940 c-4 -12 -5 -24 -2 -27 3 -2 8 5 12 17 4 12 5 24 2 27 -3
2 -8 -5 -12 -17z"/>
<path d="M3340 3631 c0 -17 18 -21 24 -6 3 9 0 15 -9 15 -8 0 -15 -4 -15 -9z"/>
<path d="M3340 3591 c0 -5 6 -11 13 -14 8 -3 14 1 14 9 0 8 -6 14 -14 14 -7 0
-13 -4 -13 -9z"/>
<path d="M2165 3383 c-14 -37 5 -40 24 -4 7 13 6 18 -4 18 -8 0 -17 -7 -20
-14z"/>
<path d="M2574 3261 c7 -11 46 -35 46 -28 0 3 -12 12 -26 22 -15 9 -23 12 -20
6z"/>
<path d="M2760 2620 c0 -5 5 -12 10 -15 14 -8 50 -81 44 -87 -2 -3 2 -11 11
-18 8 -7 15 -17 15 -23 0 -10 23 -32 78 -74 17 -14 32 -32 32 -39 0 -8 5 -14
11 -14 6 0 9 -5 7 -12 -3 -7 12 -20 31 -30 43 -22 47 -22 31 -3 -7 9 -10 18
-8 21 8 8 56 -6 67 -20 13 -16 -15 -59 -32 -50 -9 5 -9 4 -1 -5 9 -9 20 -8 52
5 38 14 41 19 36 43 -6 25 -6 25 10 6 16 -20 16 -20 9 1 -5 12 -23 34 -41 49
-29 24 -31 30 -18 37 21 12 21 32 0 24 -8 -3 -12 -2 -9 4 3 6 1 10 -6 10 -11
0 -40 22 -117 91 -35 31 -47 35 -57 19 -9 -15 -56 8 -90 44 -31 33 -65 52 -65
36z"/>
<path d="M3300 2315 c-10 -12 -10 -15 4 -15 9 0 16 7 16 15 0 8 -2 15 -4 15
-2 0 -9 -7 -16 -15z"/>
<path d="M3188 2298 c-16 -19 -15 -48 2 -48 9 0 25 59 18 65 -2 2 -11 -6 -20
-17z"/>
<path d="M3220 2281 c0 -25 6 -27 13 -6 4 8 2 17 -3 20 -6 4 -10 -3 -10 -14z"/>
<path d="M3290 2280 c0 -5 5 -10 11 -10 5 0 7 5 4 10 -3 6 -8 10 -11 10 -2 0
-4 -4 -4 -10z"/>
<path d="M3284 2233 c-4 -16 -10 -32 -14 -38 -11 -14 -40 -114 -40 -137 0 -10
5 -18 10 -18 6 0 10 6 10 14 0 8 5 16 12 18 6 2 12 15 14 29 1 13 3 25 4 27 2
1 3 5 4 10 1 4 7 22 15 40 12 27 18 32 37 28 28 -7 37 13 16 37 -15 17 -16 17
-29 -5 l-12 -23 -1 23 c0 31 -18 28 -26 -5z"/>
<path d="M3365 2170 c3 -5 8 -10 11 -10 2 0 4 5 4 10 0 6 -5 10 -11 10 -5 0
-7 -4 -4 -10z"/>
<path d="M2535 2160 c3 -5 10 -10 16 -10 5 0 9 5 9 10 0 6 -7 10 -16 10 -8 0
-12 -4 -9 -10z"/>
<path d="M3325 2137 c-19 -27 -20 -48 -1 -22 8 11 19 16 30 12 10 -4 16 -1 16
7 0 24 -29 26 -45 3z"/>
<path d="M2995 2130 c-3 -5 -1 -10 4 -10 6 0 11 5 11 10 0 6 -2 10 -4 10 -3 0
-8 -4 -11 -10z"/>
<path d="M3336 2105 c4 -8 8 -15 10 -15 2 0 4 7 4 15 0 8 -4 15 -10 15 -5 0
-7 -7 -4 -15z"/>
<path d="M3494 2085 c-17 -13 -18 -14 -1 -15 10 0 20 -7 23 -15 4 -8 10 -13
14 -10 5 3 11 1 15 -5 3 -5 1 -10 -6 -10 -7 0 -9 -3 -5 -7 4 -5 14 1 22 11 16
22 19 40 5 32 -5 -4 -7 3 -4 14 4 16 0 20 -19 20 -13 0 -33 -7 -44 -15z"/>
<path d="M3290 2061 c15 -28 13 -33 -9 -21 -13 7 -22 7 -26 0 -9 -14 3 -30 18
-24 7 2 20 -3 29 -13 18 -21 32 -56 19 -49 -5 3 -12 -2 -15 -11 -8 -20 9 -40
19 -22 5 8 4 10 -3 5 -7 -4 -12 -2 -12 3 0 26 26 7 37 -26 11 -34 10 -40 -7
-55 -21 -17 -24 -37 -14 -75 5 -20 8 -20 21 -8 17 18 33 19 33 4 0 -5 -4 -8
-9 -5 -5 3 -11 -2 -14 -13 -2 -10 3 -22 12 -28 13 -8 19 -6 28 13 8 17 8 24
-1 28 -6 3 -2 12 12 24 13 10 23 27 21 38 -3 30 11 56 25 44 7 -5 22 -8 34 -5
12 2 25 -2 29 -9 5 -7 20 -16 35 -20 21 -5 28 -2 33 13 3 10 14 26 25 36 26
24 25 38 -1 30 -37 -12 -69 -13 -69 -1 0 6 -7 0 -16 -12 -9 -13 -20 -19 -27
-15 -7 4 -20 6 -29 5 -9 -2 -22 6 -28 17 -12 24 -45 29 -37 6 4 -8 2 -17 -3
-20 -6 -4 -10 -1 -10 5 0 6 -7 19 -16 27 -14 15 -14 17 0 25 18 10 22 38 6 38
-5 0 -10 4 -10 10 0 6 9 6 25 0 28 -11 30 -8 15 21 -6 10 -18 19 -28 19 -10 0
-34 9 -55 20 -46 25 -50 25 -37 1z m43 -41 c15 -29 6 -53 -9 -28 -7 11 -13 58
-8 58 2 0 9 -13 17 -30z m47 -50 c0 -5 -4 -10 -10 -10 -5 0 -10 5 -10 10 0 6
5 10 10 10 6 0 10 -4 10 -10z"/>
<path d="M3330 2070 c0 -5 9 -10 21 -10 11 0 17 5 14 10 -3 6 -13 10 -21 10
-8 0 -14 -4 -14 -10z"/>
<path d="M2475 2030 c-3 -5 -1 -10 4 -10 6 0 11 5 11 10 0 6 -2 10 -4 10 -3 0
-8 -4 -11 -10z"/>
<path d="M3200 2019 c0 -5 -5 -7 -11 -3 -6 4 -9 -1 -7 -12 1 -11 -2 -21 -7
-22 -22 -8 -34 -24 -28 -39 5 -12 1 -14 -15 -8 -16 4 -22 2 -22 -9 0 -8 -10
-16 -22 -18 -20 -3 -23 -10 -26 -51 -3 -51 11 -82 35 -73 8 4 17 -4 23 -19 12
-31 33 -33 28 -2 -2 12 -8 21 -14 20 -6 -1 -16 16 -23 38 -10 32 -9 42 2 54
25 25 146 -22 147 -57 0 -4 -7 -5 -15 -2 -8 4 -15 1 -15 -5 0 -6 -7 -11 -17
-11 -9 0 -13 -3 -10 -7 4 -3 2 -12 -4 -19 -8 -10 -7 -18 5 -29 19 -20 21 -29
4 -18 -21 13 -40 12 -74 -2 -18 -7 -35 -10 -37 -7 -2 4 -2 2 -1 -5 2 -6 -4
-14 -12 -17 -12 -4 -10 -10 7 -27 17 -17 19 -23 8 -30 -11 -6 -10 -9 4 -15 12
-4 24 2 38 19 22 29 44 27 68 -6 7 -10 19 -16 26 -13 7 2 12 -2 11 -11 0 -9 5
-18 13 -21 8 -3 11 0 7 7 -5 7 1 11 13 11 12 0 21 5 21 11 0 6 14 9 32 7 27
-2 32 0 32 18 0 11 -9 31 -21 43 -12 13 -25 37 -28 52 -4 16 -11 27 -16 23 -5
-3 -9 -1 -9 5 0 5 5 13 10 16 8 5 8 11 1 19 -11 13 -4 53 12 74 5 7 7 15 3 19
-3 3 -6 1 -6 -6 0 -14 -52 -4 -62 13 -4 6 -14 20 -22 31 -15 19 -16 19 -9 1 4
-13 3 -17 -5 -12 -16 9 -15 79 0 94 9 9 9 12 0 12 -7 0 -12 -5 -12 -11z m-58
-335 c-11 -25 -18 -31 -20 -20 -2 9 -11 16 -20 16 -10 1 -2 9 18 20 19 11 36
19 37 20 2 0 -5 -16 -15 -36z"/>
<path d="M3553 2002 c-3 -12 -9 -19 -14 -16 -5 3 -9 0 -9 -5 0 -6 4 -11 10
-11 12 0 34 40 25 48 -3 3 -8 -4 -12 -16z"/>
<path d="M3436 1983 c-6 -14 -5 -15 5 -6 7 7 10 15 7 18 -3 3 -9 -2 -12 -12z"/>
<path d="M3526 1944 c-24 -23 -19 -27 9 -8 14 9 25 18 25 20 0 10 -20 3 -34
-12z"/>
<path d="M3590 1950 c0 -5 5 -10 11 -10 5 0 7 5 4 10 -3 6 -8 10 -11 10 -2 0
-4 -4 -4 -10z"/>
<path d="M3270 1910 c0 -5 5 -10 11 -10 5 0 7 5 4 10 -3 6 -8 10 -11 10 -2 0
-4 -4 -4 -10z"/>
<path d="M3646 1845 c-19 -19 -41 -35 -49 -35 -11 0 -13 -7 -9 -22 4 -17 2
-20 -11 -15 -12 4 -14 2 -10 -11 3 -9 10 -22 15 -29 5 -6 5 -13 -2 -16 -6 -3
-5 -4 2 -3 7 2 13 9 13 17 0 7 8 15 18 17 9 2 17 -2 17 -8 0 -6 4 -8 10 -5 5
3 8 19 6 36 -2 16 0 32 5 35 5 3 9 12 9 21 0 9 7 25 17 35 30 33 3 19 -31 -17z"/>
<path d="M3160 1780 c0 -5 5 -10 10 -10 6 0 10 5 10 10 0 6 -4 10 -10 10 -5 0
-10 -4 -10 -10z"/>
<path d="M3069 1748 c-5 -9 -5 -48 -1 -43 8 7 13 45 7 45 -3 0 -6 -1 -6 -2z"/>
<path d="M3415 1741 c-3 -5 -1 -12 5 -16 5 -3 10 1 10 9 0 18 -6 21 -15 7z"/>
<path d="M3736 1734 c-3 -9 -9 -14 -13 -10 -3 3 -14 -1 -24 -10 -10 -9 -33
-17 -50 -18 -18 -1 -34 -7 -37 -14 -2 -6 -10 -12 -18 -12 -8 0 -14 -4 -14 -10
0 -5 -7 -10 -15 -10 -8 0 -15 5 -15 10 0 6 -7 10 -15 10 -8 0 -15 7 -15 15 0
8 -5 15 -10 15 -7 0 -7 -6 0 -19 5 -11 10 -28 10 -38 0 -12 -9 -5 -27 22 -25
38 -27 38 -36 17 -7 -15 -19 -22 -39 -22 -28 0 -37 -13 -17 -26 7 -4 8 -9 1
-13 -6 -3 -8 -18 -5 -33 3 -18 10 -25 17 -21 17 11 46 14 46 4 0 -4 17 -7 38
-5 31 2 37 5 36 24 -1 21 0 22 12 5 7 -9 17 -14 23 -10 6 3 11 -1 11 -9 0 -9
5 -16 11 -16 5 0 8 -3 6 -7 -3 -5 -1 -17 4 -28 7 -18 8 -18 8 -2 1 10 7 17 14
14 6 -2 11 -15 9 -29 -3 -24 22 -57 35 -44 3 3 1 6 -5 6 -7 0 -12 5 -12 11 0
5 4 8 9 5 5 -4 12 0 14 6 3 7 4 -4 3 -26 -2 -30 1 -40 16 -44 10 -2 18 -11 18
-18 0 -8 6 -14 13 -14 8 0 7 -3 -3 -9 -8 -6 -18 -7 -24 -4 -5 4 -7 -1 -3 -11
4 -9 1 -25 -5 -36 -10 -16 -13 -16 -22 -4 -9 11 -11 8 -12 -17 -1 -22 2 -27 8
-17 8 10 9 10 5 -2 -2 -8 -14 -17 -28 -19 -13 -1 -27 -8 -31 -15 -6 -8 -8 -7
-8 3 0 8 -7 11 -20 8 -16 -4 -22 2 -30 34 -6 21 -13 39 -17 39 -3 0 -3 -9 0
-20 3 -13 0 -20 -9 -20 -8 0 -11 6 -7 17 5 12 3 14 -8 7 -8 -4 -18 -9 -24 -11
-5 -1 -19 -5 -30 -8 -14 -4 -23 0 -30 16 -15 34 -28 33 -79 -6 -25 -19 -46
-30 -46 -24 0 5 -5 7 -11 4 -6 -4 -8 -9 -5 -12 9 -10 51 -9 64 0 8 6 17 5 27
-3 12 -10 15 -10 15 0 0 19 40 -20 52 -49 11 -31 -3 -41 -48 -31 -19 4 -34 5
-35 1 0 -3 -2 -14 -4 -23 -2 -10 2 -16 7 -15 6 1 13 -4 15 -11 3 -8 -1 -10
-11 -6 -9 3 -16 2 -16 -3 0 -5 -6 -10 -14 -10 -8 0 -11 8 -8 20 3 14 1 18 -6
13 -7 -4 -12 -17 -12 -29 0 -18 -2 -19 -10 -7 -9 13 -10 13 -10 0 0 -13 -2
-13 -9 -1 -5 8 -7 24 -5 37 3 18 0 21 -16 17 -22 -6 -26 -18 -10 -28 6 -4 8
-11 5 -16 -4 -5 -1 -9 4 -9 6 0 11 -5 11 -10 0 -7 -6 -7 -19 0 -11 5 -30 11
-43 11 -17 1 -18 3 -5 6 18 5 21 22 11 61 -8 29 -23 28 -50 -3 -12 -14 -26
-25 -30 -24 -14 3 -44 -12 -44 -22 0 -5 11 -3 25 3 23 10 29 8 52 -14 21 -22
23 -28 13 -40 -8 -8 -26 -12 -43 -10 -29 5 -30 3 -24 -26 4 -17 2 -34 -3 -37
-6 -4 -7 -11 -4 -17 5 -8 1 -9 -10 -5 -9 4 -14 3 -11 -2 3 -5 1 -12 -5 -16 -5
-3 -10 -2 -10 3 0 6 -15 6 -40 1 -27 -6 -48 -6 -60 1 -11 6 -20 7 -20 3 0 -4
-5 -1 -10 9 -12 19 -54 13 -46 -7 3 -8 -6 -15 -23 -18 -19 -4 -27 -12 -28 -29
-2 -18 0 -19 7 -8 5 8 10 11 10 5 0 -5 7 -2 15 9 13 17 14 15 21 -19 6 -34 8
-36 18 -19 6 10 17 20 24 22 8 1 11 -2 8 -7 -4 -5 -2 -12 3 -16 6 -3 8 -12 5
-19 -3 -8 -1 -17 5 -20 12 -8 25 29 16 46 -4 7 0 6 7 -3 18 -22 48 -4 48 29 0
13 69 32 76 20 3 -5 11 -2 18 8 9 12 15 14 20 5 4 -6 12 -9 17 -6 15 10 10
-12 -6 -29 -9 -8 -11 -17 -6 -21 6 -3 17 8 26 25 8 16 23 31 33 32 9 1 24 2
32 4 8 1 20 2 26 3 6 1 11 15 11 31 0 37 7 45 30 36 16 -7 16 -9 2 -19 -16
-12 -24 -42 -34 -132 -7 -57 -13 -68 -22 -37 -3 12 -10 22 -15 22 -6 0 -8 7
-5 14 4 10 1 13 -8 9 -8 -3 -12 -10 -8 -16 4 -6 -2 -8 -15 -5 -12 4 -22 2 -22
-3 0 -6 -8 -5 -20 1 -17 9 -21 6 -29 -22 -8 -29 -9 -30 -10 -8 -2 23 -2 24
-16 7 -12 -16 -11 -23 7 -53 20 -33 19 -64 -2 -64 -5 0 -10 8 -10 18 0 9 -5
24 -11 32 -8 11 -9 7 -5 -17 3 -18 2 -33 -2 -33 -4 0 -7 -18 -8 -40 -1 -39 3
-43 41 -43 6 0 21 4 35 8 24 7 23 6 -8 -29 -17 -20 -32 -41 -32 -46 0 -5 -10
-18 -22 -30 -12 -11 -27 -35 -33 -53 -7 -19 -17 -31 -25 -29 -12 2 -12 0 1
-10 19 -15 37 -64 20 -54 -6 4 -11 15 -11 24 0 10 -6 5 -16 -13 -8 -16 -22
-34 -30 -38 -8 -4 -14 -13 -14 -20 0 -9 2 -9 8 -1 10 16 52 28 52 15 0 -6 -5
-11 -11 -11 -5 0 -7 -5 -3 -11 4 -8 12 -3 21 12 14 24 14 24 10 -8 -4 -36 4
-41 23 -18 7 8 16 13 20 10 4 -2 18 7 30 20 13 14 28 25 34 25 15 1 52 32 59
50 4 11 6 11 6 2 1 -10 5 -10 17 2 8 9 12 20 9 26 -12 20 16 10 43 -15 24 -22
42 -30 64 -26 5 0 7 -2 7 -7 -3 -18 2 -22 19 -13 14 8 18 6 18 -10 0 -13 -5
-18 -15 -14 -8 3 -19 0 -24 -7 -6 -9 -7 -7 -3 6 5 13 2 17 -9 12 -8 -3 -15 -1
-15 5 0 6 -6 9 -12 6 -7 -2 -12 -10 -11 -16 2 -6 -1 -11 -6 -11 -5 0 -11 9
-13 20 -2 14 -7 17 -18 10 -12 -7 -12 -12 -2 -22 6 -6 12 -21 12 -33 0 -16 2
-17 10 -5 5 8 10 11 10 5 0 -5 7 -1 15 9 13 17 15 17 21 3 3 -9 10 -14 15 -11
5 3 9 0 9 -7 0 -7 -8 -9 -21 -6 -13 4 -19 1 -16 -6 2 -7 -7 -21 -22 -31 -26
-20 -26 -20 -8 0 20 24 23 39 5 27 -7 -4 -21 -6 -31 -5 -12 2 -19 -5 -23 -28
-4 -17 -9 -28 -12 -26 -12 13 -41 -17 -44 -46 -2 -17 -10 -33 -18 -36 -12 -4
-13 -2 -2 9 15 16 16 29 2 29 -5 0 -10 -7 -10 -15 0 -8 -6 -15 -12 -15 -9 0
-9 -3 1 -9 12 -8 11 -16 -4 -53 -9 -23 -20 -49 -23 -57 -4 -10 2 -12 29 -6 70
15 189 56 189 65 0 6 9 10 20 10 11 0 20 5 20 11 0 5 5 7 10 4 6 -3 10 1 10 9
0 12 11 16 45 16 32 0 67 11 118 36 39 20 74 38 76 40 9 8 -23 35 -36 30 -9
-4 -8 2 4 18 10 13 21 22 24 20 4 -2 10 4 13 13 5 12 10 13 18 5 6 -6 17 -8
24 -5 8 3 14 1 14 -4 0 -5 6 -10 13 -10 17 0 7 66 -18 114 -18 35 -12 75 9 67
8 -3 17 8 23 28 9 27 11 29 12 10 1 -15 5 -21 13 -16 7 4 8 3 4 -4 -4 -6 -1
-22 6 -34 7 -13 11 -29 10 -35 -2 -7 3 -10 12 -7 8 3 17 0 21 -6 5 -8 11 -8
21 1 10 9 14 9 14 0 0 -6 -7 -14 -15 -17 -11 -5 -11 -9 -2 -19 9 -10 14 -9 25
4 10 12 15 13 18 4 8 -18 24 -16 24 2 0 8 6 12 13 9 8 -3 20 2 27 11 9 11 9
15 1 15 -7 0 -9 5 -6 10 4 6 10 8 15 5 11 -6 66 19 93 43 24 21 21 35 -13 54
-35 20 -40 48 -9 48 11 0 18 4 14 9 -3 5 1 11 8 13 9 2 11 12 7 27 -6 24 -6
24 -28 -13 -16 -26 -27 -36 -38 -32 -9 3 -19 6 -24 6 -4 0 -11 8 -15 18 -5 14
-4 15 6 4 24 -22 49 -14 64 22 8 19 19 38 25 41 12 8 4 43 -15 65 -7 8 -16 31
-20 50 -12 65 -14 67 -40 62 -14 -2 -25 -8 -25 -13 0 -5 -4 -9 -9 -9 -5 0 -7
10 -4 21 5 18 3 20 -15 14 -29 -9 -47 2 -32 20 12 15 6 35 -10 35 -5 0 -7 -7
-3 -16 4 -12 2 -15 -8 -12 -8 3 -12 13 -11 23 3 16 1 17 -11 6 -28 -23 -26 6
3 40 25 30 31 33 49 21 19 -11 21 -10 21 17 0 51 50 72 85 36 24 -23 25 -23
35 -4 6 11 8 23 5 28 -3 5 8 4 24 -2 27 -10 28 -12 13 -25 -9 -7 -12 -11 -6
-8 6 3 19 0 29 -7 14 -11 15 -19 7 -49 -9 -34 -9 -37 11 -35 12 2 32 8 44 15
23 13 57 6 47 -9 -3 -5 2 -6 11 -3 11 5 14 2 9 -10 -3 -9 -10 -16 -15 -16 -5
0 -7 -11 -3 -25 5 -21 3 -24 -11 -19 -14 6 -16 3 -10 -15 8 -26 -12 -81 -30
-81 -7 0 -11 -14 -11 -37 2 -31 6 -39 24 -41 12 -2 23 -10 24 -18 0 -8 1 -20
2 -26 1 -7 -5 -12 -13 -10 -7 1 -19 -2 -25 -8 -7 -5 -16 -6 -21 -2 -4 4 -6 1
-3 -7 2 -8 14 -18 26 -22 19 -7 36 6 126 97 111 113 182 202 153 191 -9 -3
-17 -2 -17 3 0 5 -6 7 -13 4 -8 -3 -19 2 -26 10 -17 20 -32 76 -20 76 5 0 7
14 4 30 -5 29 -4 30 25 28 16 -1 30 -7 30 -13 0 -6 11 -21 25 -33 14 -12 25
-19 25 -16 0 4 7 1 15 -6 20 -16 37 -3 30 23 -4 15 -3 18 3 9 6 -10 13 -8 27
8 25 28 7 45 -45 44 -40 -1 -55 11 -22 18 9 2 -17 8 -58 12 -41 4 -81 12 -88
18 -9 8 -11 7 -6 -6 6 -16 4 -16 -29 0 l-36 17 4 74 c2 40 6 77 9 81 3 5 -1
20 -8 33 -10 20 -10 27 1 37 20 20 16 41 -8 37 -16 -3 -19 0 -14 15 8 24 8 24
-44 5 -41 -14 -46 -12 -42 23 2 15 -15 16 -24 1 -4 -6 -13 -8 -21 -5 -8 3 -14
2 -14 -2 0 -7 -57 -32 -72 -32 -3 0 -9 7 -12 16 -5 14 -4 15 9 4 9 -8 15 -9
15 -2 0 6 -7 15 -16 20 -23 13 -11 61 13 57 10 -1 27 2 38 8 11 6 24 10 30 8
5 -1 7 1 3 5 -5 4 1 13 12 21 11 8 20 21 20 29 0 8 5 14 12 14 25 0 -3 13 -34
16 -18 1 -27 0 -20 -3 27 -11 10 -21 -30 -18 -24 1 -49 -2 -55 -7 -7 -6 -13
-7 -13 -4 0 4 -13 -2 -29 -13 -16 -12 -34 -21 -40 -21 -6 0 -11 -4 -11 -10 0
-5 4 -10 9 -10 6 0 13 5 16 10 9 15 22 12 22 -5 0 -15 -24 -28 -37 -20 -5 3
-12 0 -16 -6 -4 -7 -3 -9 3 -6 5 3 10 0 10 -7 0 -10 -8 -12 -26 -6 -14 4 -32
5 -40 2 -10 -3 -12 0 -7 13 4 10 2 22 -5 25 -6 5 -8 17 -4 29 3 12 11 18 17
15 7 -4 8 -2 4 4 -4 6 1 23 10 37 20 31 12 32 -27 3 -29 -22 -31 -22 -43 -6
-7 10 -16 15 -19 11 -4 -3 -7 1 -7 11 0 9 5 14 10 11 6 -3 10 1 10 10 0 9 7
26 15 39 11 17 12 23 3 24 -7 1 -27 4 -44 8 -24 4 -33 2 -38 -12z m24 -84 c0
-5 -6 -10 -14 -10 -8 0 -18 -9 -21 -20 -4 -11 -11 -18 -16 -14 -6 3 2 17 16
30 29 26 35 29 35 14z m-69 -83 c-1 -12 -15 -9 -19 4 -3 6 1 10 8 8 6 -3 11
-8 11 -12z m414 -127 c-3 -5 -12 -10 -18 -10 -7 0 -6 4 3 10 19 12 23 12 15 0z
m-264 -98 c-13 -25 -41 -36 -41 -17 0 8 6 14 13 13 6 -2 11 3 9 10 -1 8 2 11
8 7 5 -3 10 -1 10 6 0 7 3 10 6 7 3 -4 1 -15 -5 -26z m247 -16 c-10 -7 -14
-17 -10 -22 4 -4 -1 -2 -10 5 -13 10 -18 10 -18 2 0 -19 -30 -45 -40 -35 -13
13 0 27 40 47 42 20 62 22 38 3z m-373 -6 c3 -6 -1 -7 -9 -4 -18 7 -21 14 -7
14 6 0 13 -4 16 -10z m280 -50 c3 -5 -1 -10 -9 -10 -9 0 -16 5 -16 10 0 6 4
10 9 10 6 0 13 -4 16 -10z m-205 -18 c0 -10 -7 -19 -15 -19 -8 0 -12 4 -9 9 3
4 0 8 -5 8 -6 0 -11 5 -11 10 0 6 9 10 20 10 13 0 20 -7 20 -18z m-170 -81
c-5 -18 -8 -38 -6 -44 1 -7 1 -9 -1 -4 -3 4 -9 4 -15 1 -6 -4 -5 3 1 15 7 12
9 26 6 32 -6 9 14 43 21 36 2 -2 -1 -18 -6 -36z m-164 12 c-9 -9 -67 -13 -62
-4 3 4 19 8 37 9 17 0 29 -2 25 -5z m-31 -23 c3 -5 -1 -10 -10 -10 -9 0 -13 5
-10 10 3 6 8 10 10 10 2 0 7 -4 10 -10z m885 -35 c0 -2 -7 -5 -15 -9 -9 -3
-15 0 -15 9 0 9 6 12 15 9 8 -4 15 -7 15 -9z m-1088 -67 c-7 -7 -12 -8 -12 -2
0 14 12 26 19 19 2 -3 -1 -11 -7 -17z m1008 11 c13 -9 12 -10 -2 -5 -21 6 -23
-5 -6 -22 9 -9 9 -15 0 -24 -9 -9 -12 -9 -12 0 0 7 -9 12 -20 12 -20 0 -28 28
-13 43 10 10 36 8 53 -4z m-831 -71 c-6 -23 -5 -34 3 -39 7 -5 9 -11 5 -15 -9
-9 -46 37 -47 59 0 10 4 16 9 13 5 -3 12 1 15 10 11 29 25 5 15 -28z m741 22
c0 -5 -5 -10 -11 -10 -5 0 -7 5 -4 10 3 6 8 10 11 10 2 0 4 -4 4 -10z m-327
-7 c-7 -2 -19 -2 -25 0 -7 3 -2 5 12 5 14 0 19 -2 13 -5z m-880 -42 c3 -13 1
-18 -9 -14 -7 2 -10 11 -7 19 7 19 10 18 16 -5z m537 -37 c0 -16 -26 -19 -34
-5 -4 5 -3 16 0 25 5 13 9 14 20 5 8 -6 14 -18 14 -25z m350 1 c0 -3 -4 -4 -9
-1 -5 4 -11 0 -14 -6 -2 -7 -4 -1 -4 14 0 23 2 25 13 13 8 -7 14 -16 14 -20z
m26 -11 c-3 -9 -6 -27 -6 -40 0 -15 -6 -24 -16 -24 -12 0 -14 3 -6 13 11 13
12 17 12 47 0 11 5 20 11 20 6 0 8 -7 5 -16z m-442 -13 c11 -4 15 -10 9 -14
-5 -3 -19 0 -29 8 -20 15 -11 18 20 6z m471 -21 c-3 -11 0 -20 10 -24 8 -3 15
-11 14 -18 0 -10 -2 -10 -6 0 -3 9 -9 10 -17 3 -9 -8 -13 0 -15 30 -1 27 2 39
9 34 6 -4 8 -15 5 -25z m398 23 c-7 -2 -21 -2 -30 0 -10 3 -4 5 12 5 17 0 24
-2 18 -5z m-289 -27 c-3 -8 -12 -12 -21 -9 -12 5 -12 7 -1 14 20 13 28 11 22
-5z m-374 -146 c0 -5 -5 -10 -11 -10 -5 0 -7 5 -4 10 3 6 8 10 11 10 2 0 4 -4
4 -10z m-466 -23 c4 4 4 0 0 -10 -5 -15 -24 -25 -24 -13 0 2 -3 13 -7 23 -6
15 -4 16 9 6 8 -7 18 -10 22 -6z m856 -7 c-8 -6 -21 -8 -27 -5 -7 2 -13 0 -13
-5 0 -6 7 -10 15 -10 8 0 15 -5 15 -11 0 -8 -7 -7 -21 2 -30 20 -28 33 6 40
35 6 45 2 25 -11z m-284 -55 c-3 -8 2 -18 11 -23 9 -5 13 -14 9 -21 -12 -18
-39 15 -31 39 3 11 9 20 12 20 3 0 3 -7 -1 -15z m-560 -63 c-8 -16 -24 -32
-35 -35 -17 -4 -19 -2 -11 13 5 10 17 21 27 24 15 6 15 9 3 17 -12 9 -11 10 4
5 14 -5 17 -3 12 11 -5 14 -4 15 4 7 9 -9 8 -19 -4 -42z m458 18 c-6 -6 -10
-2 -11 12 -2 16 1 18 10 9 7 -7 8 -14 1 -21z m33 8 c-3 -8 -6 -5 -6 6 -1 11 2
17 5 13 3 -3 4 -12 1 -19z m-204 -15 c-4 -10 -13 -25 -22 -33 -13 -13 -13 -13
-8 0 4 8 10 23 13 33 4 9 10 17 15 17 5 0 5 -8 2 -17z m532 -23 c-3 -5 -1 -10
5 -10 6 0 9 -4 6 -9 -3 -5 -16 -7 -28 -3 -14 3 -19 1 -14 -6 3 -6 2 -13 -4
-17 -6 -4 -8 -11 -5 -16 4 -5 1 -9 -5 -9 -6 0 -8 10 -4 26 5 18 3 25 -4 20 -6
-3 -14 -2 -17 4 -4 6 -3 10 2 9 26 -5 50 3 50 16 0 8 -4 15 -9 15 -5 0 -6 5
-3 10 4 6 12 4 21 -5 9 -8 12 -19 9 -25z m-252 -4 c3 -8 0 -17 -7 -19 -10 -4
-12 1 -9 14 6 23 9 24 16 5z m-396 -58 c-3 -7 -5 -2 -5 12 0 14 2 19 5 13 2
-7 2 -19 0 -25z m-237 -12 c0 -8 -4 -17 -9 -21 -6 -3 -9 4 -8 15 1 23 17 28
17 6z m44 -31 c-4 -8 -8 -15 -10 -15 -2 0 -4 7 -4 15 0 8 4 15 10 15 5 0 7 -7
4 -15z m233 -145 c-3 -11 -1 -18 4 -14 5 3 9 0 9 -5 0 -6 -8 -11 -18 -11 -10
0 -24 -6 -32 -12 -8 -7 -7 -4 3 8 9 11 14 23 11 27 -8 8 4 27 18 27 6 0 8 -9
5 -20z m43 6 c0 -3 -4 -8 -10 -11 -5 -3 -10 -1 -10 4 0 6 5 11 10 11 6 0 10
-2 10 -4z m-100 -50 c0 -2 -7 -6 -15 -10 -8 -3 -15 -1 -15 4 0 6 7 10 15 10 8
0 15 -2 15 -4z m-60 -26 c0 -5 -5 -10 -11 -10 -5 0 -7 5 -4 10 3 6 8 10 11 10
2 0 4 -4 4 -10z m-60 -89 c0 -5 -7 -11 -14 -14 -10 -4 -13 -1 -9 9 6 15 23 19
23 5z"/>
<path d="M3540 1689 c0 -5 5 -7 10 -4 6 3 10 8 10 11 0 2 -4 4 -10 4 -5 0 -10
-5 -10 -11z"/>
<path d="M630 1680 c-13 -8 -12 -10 3 -10 9 0 17 5 17 10 0 12 -1 12 -20 0z"/>
<path d="M640 1640 c0 -5 5 -10 11 -10 5 0 7 5 4 10 -3 6 -8 10 -11 10 -2 0
-4 -4 -4 -10z"/>
<path d="M2952 1500 c-7 -11 -8 -20 -3 -20 9 0 24 30 18 36 -1 2 -8 -6 -15
-16z"/>
<path d="M3100 1512 c0 -5 14 -9 30 -9 20 0 26 3 18 9 -17 10 -48 10 -48 0z"/>
<path d="M3490 1500 c0 -5 5 -10 10 -10 6 0 10 5 10 10 0 6 -4 10 -10 10 -5 0
-10 -4 -10 -10z"/>
<path d="M3066 1489 c2 -4 -3 -14 -11 -22 -19 -19 -19 -22 1 -41 20 -20 35
-21 28 -1 -8 19 31 21 40 3 5 -10 7 -10 12 0 3 6 10 10 14 7 5 -3 7 7 6 22 -3
25 -8 29 -49 33 -25 3 -44 3 -41 -1z"/>
<path d="M3531 1495 c-2 -5 -4 -30 -6 -55 -3 -33 -1 -40 6 -27 6 9 8 34 6 55
-2 20 -5 33 -6 27z"/>
<path d="M4370 1453 c0 -12 -3 -30 -6 -40 -6 -16 -5 -15 9 2 15 20 16 20 25
-5 8 -21 6 -29 -14 -46 -29 -26 -31 -39 -4 -24 15 8 18 8 14 -3 -7 -20 16 -35
66 -42 40 -5 42 -4 18 6 -28 11 -32 18 -29 52 1 9 -4 17 -12 17 -21 0 -28 26
-12 40 18 15 10 30 -15 30 -10 0 -24 8 -29 18 -9 15 -10 15 -11 -5z"/>
<path d="M3345 1440 c-3 -5 -1 -10 4 -10 6 0 11 5 11 10 0 6 -2 10 -4 10 -3 0
-8 -4 -11 -10z"/>
<path d="M3387 1438 c4 -7 6 -22 4 -33 -2 -15 0 -17 9 -9 13 13 5 54 -11 54
-6 0 -7 -6 -2 -12z"/>
<path d="M2976 1428 c5 -7 2 -9 -9 -5 -25 9 -28 -20 -4 -37 22 -15 22 -15 -6
-15 -25 -1 -27 -3 -13 -16 20 -20 43 -19 55 3 9 15 10 15 11 -4 0 -13 8 -24
20 -27 11 -3 18 -1 14 4 -3 5 2 9 10 9 8 0 16 -8 18 -17 3 -15 5 -14 10 5 4
15 2 22 -8 22 -8 0 -14 4 -14 9 0 5 -10 11 -22 13 -18 2 -22 8 -20 27 4 24
-11 41 -36 41 -8 0 -10 -5 -6 -12z"/>
<path d="M3220 1429 c0 -5 5 -7 10 -4 6 3 10 8 10 11 0 2 -4 4 -10 4 -5 0 -10
-5 -10 -11z"/>
<path d="M3210 1406 c0 -2 7 -6 15 -10 8 -3 15 -1 15 4 0 6 -7 10 -15 10 -8 0
-15 -2 -15 -4z"/>
<path d="M4435 1390 c-3 -5 -1 -10 4 -10 6 0 11 5 11 10 0 6 -2 10 -4 10 -3 0
-8 -4 -11 -10z"/>
<path d="M3435 1380 c-3 -5 -1 -10 4 -10 6 0 11 5 11 10 0 6 -2 10 -4 10 -3 0
-8 -4 -11 -10z"/>
<path d="M4346 1374 c-18 -17 -20 -30 -7 -38 5 -3 8 2 7 12 0 9 5 16 12 15 6
-2 12 4 12 12 0 19 -5 19 -24 -1z"/>
<path d="M3237 1351 c-12 -25 -12 -31 -1 -35 9 -3 11 0 7 12 -6 15 -3 14 15
-2 24 -20 27 -12 16 32 -8 30 -20 28 -37 -7z"/>
<path d="M2920 1339 c0 -5 5 -7 10 -4 6 3 10 8 10 11 0 2 -4 4 -10 4 -5 0 -10
-5 -10 -11z"/>
<path d="M4575 1280 c3 -5 8 -10 11 -10 2 0 4 5 4 10 0 6 -5 10 -11 10 -5 0
-7 -4 -4 -10z"/>
<path d="M4613 1234 c3 -3 2 -17 -3 -30 -5 -13 -6 -24 -1 -24 5 0 11 10 15 23
8 32 7 37 -6 37 -6 0 -9 -3 -5 -6z"/>
<path d="M1890 1220 c0 -5 5 -10 10 -10 6 0 10 5 10 10 0 6 -4 10 -10 10 -5 0
-10 -4 -10 -10z"/>
<path d="M3088 1223 c7 -3 16 -2 19 1 4 3 -2 6 -13 5 -11 0 -14 -3 -6 -6z"/>
<path d="M4355 1193 c33 -18 117 -35 109 -21 -3 4 -20 8 -38 8 -18 0 -41 7
-52 15 -10 8 -26 14 -34 14 -8 0 -1 -7 15 -16z"/>
<path d="M1532 1184 c-7 -8 -8 -14 -3 -14 10 0 25 19 20 25 -2 1 -10 -3 -17
-11z"/>
<path d="M2965 1189 c-4 -6 -18 -9 -32 -6 -20 4 -27 -2 -45 -37 -11 -22 -26
-44 -32 -48 -7 -5 -3 -8 9 -8 17 0 17 -2 5 -10 -11 -7 -11 -10 -2 -10 9 0 10
-5 2 -19 -17 -32 -12 -47 8 -25 13 13 17 31 15 54 -2 19 2 42 9 50 16 19 75
40 114 40 21 1 25 3 14 9 -30 17 -58 22 -65 10z"/>
<path d="M668 1143 c-25 -6 -23 -22 2 -20 11 1 20 7 20 14 0 7 -1 12 -2 12 -2
-1 -11 -3 -20 -6z"/>
<path d="M1586 1083 c9 -36 10 -38 17 -13 3 11 0 20 -6 20 -7 0 -5 5 3 10 13
8 12 10 -3 10 -14 0 -16 -5 -11 -27z"/>
<path d="M1875 1089 c-11 -16 -1 -19 13 -3 7 8 8 14 3 14 -5 0 -13 -5 -16 -11z"/>
<path d="M3922 1065 c0 -16 2 -22 5 -12 2 9 2 23 0 30 -3 6 -5 -1 -5 -18z"/>
<path d="M1630 1061 c0 -25 6 -27 13 -6 4 8 2 17 -3 20 -6 4 -10 -3 -10 -14z"/>
<path d="M4390 1030 c0 -5 9 -10 20 -10 11 0 20 5 20 10 0 6 -9 10 -20 10 -11
0 -20 -4 -20 -10z"/>
<path d="M716 1015 c4 -8 8 -15 10 -15 2 0 4 7 4 15 0 8 -4 15 -10 15 -5 0 -7
-7 -4 -15z"/>
<path d="M1550 998 c0 -23 3 -29 9 -19 8 12 4 51 -5 51 -2 0 -4 -15 -4 -32z"/>
<path d="M1640 1018 c0 -25 13 -58 22 -58 5 0 7 12 4 28 -2 15 -5 30 -5 35 -2
12 -21 8 -21 -5z"/>
<path d="M3847 1016 c-3 -8 0 -17 8 -20 9 -3 13 2 12 15 -2 22 -13 25 -20 5z"/>
<path d="M1480 1010 c0 -5 7 -7 15 -4 8 4 15 8 15 10 0 2 -7 4 -15 4 -8 0 -15
-4 -15 -10z"/>
<path d="M1475 980 c-3 -6 1 -7 9 -4 18 7 21 14 7 14 -6 0 -13 -4 -16 -10z"/>
<path d="M1750 971 c0 -6 5 -13 10 -16 6 -3 10 1 10 9 0 9 -4 16 -10 16 -5 0
-10 -4 -10 -9z"/>
<path d="M1435 916 c-9 -60 -12 -118 -7 -133 2 -8 15 -2 34 17 29 29 29 31 14
55 -12 18 -14 36 -10 65 5 32 4 40 -9 40 -11 0 -18 -14 -22 -44z"/>
<path d="M1595 919 c9 -17 19 -28 22 -25 8 8 -17 56 -29 56 -5 0 -1 -14 7 -31z"/>
<path d="M3045 893 l-17 -28 23 22 c12 12 20 25 17 28 -3 3 -13 -7 -23 -22z"/>
<path d="M2920 883 c0 -13 5 -23 10 -23 13 0 13 11 0 30 -8 12 -10 11 -10 -7z"/>
<path d="M2980 877 c0 -11 9 -21 20 -24 11 -3 17 -9 14 -14 -3 -5 2 -6 10 -3
12 5 13 9 3 18 -6 7 -16 13 -21 13 -5 1 -13 7 -17 15 -7 10 -9 8 -9 -5z"/>
<path d="M3070 859 c0 -5 -4 -7 -10 -4 -6 3 -7 -1 -4 -10 5 -12 9 -13 20 -4
16 13 18 29 4 29 -5 0 -10 -5 -10 -11z"/>
<path d="M2920 804 c0 -8 5 -12 10 -9 6 4 8 11 5 16 -9 14 -15 11 -15 -7z"/>
<path d="M4060 740 c-9 -16 -8 -20 5 -20 9 0 13 5 10 10 -3 6 -1 10 4 10 6 0
11 5 11 10 0 17 -19 11 -30 -10z"/>
<path d="M820 720 c0 -5 5 -10 11 -10 5 0 7 5 4 10 -3 6 -8 10 -11 10 -2 0 -4
-4 -4 -10z"/>
<path d="M4100 726 c0 -2 14 -6 30 -8 17 -3 30 -1 30 4 0 4 -13 8 -30 8 -16 0
-30 -2 -30 -4z"/>
<path d="M840 660 c0 -5 5 -10 10 -10 6 0 10 5 10 10 0 6 -4 10 -10 10 -5 0
-10 -4 -10 -10z"/>
<path d="M1205 610 c3 -5 8 -10 11 -10 2 0 4 5 4 10 0 6 -5 10 -11 10 -5 0 -7
-4 -4 -10z"/>
<path d="M1104 595 c-5 -12 -9 -13 -21 -4 -11 10 -18 8 -33 -8 -10 -12 -16
-24 -13 -27 4 -3 -3 -6 -15 -6 -13 0 -22 8 -25 23 -2 12 -5 3 -6 -21 -1 -32 3
-44 16 -49 9 -4 19 -1 21 5 5 16 43 15 65 -2 9 -7 17 -26 17 -43 0 -17 8 -38
20 -48 23 -21 67 -28 77 -13 3 7 1 8 -5 4 -7 -4 -12 -4 -13 1 0 4 -2 18 -3 31
-2 13 -13 30 -25 39 -16 11 -20 18 -12 26 6 6 11 18 11 27 -1 12 -4 11 -15 -4
-14 -19 -15 -18 -15 12 0 18 5 32 10 32 6 0 10 5 10 11 0 8 -4 9 -13 0 -16
-13 -28 -5 -20 15 3 8 2 14 -1 14 -4 0 -9 -7 -12 -15z"/>
<path d="M3737 523 c-2 -4 4 -17 14 -27 22 -22 25 -10 5 17 -8 10 -16 15 -19
10z"/>
<path d="M3244 395 c-3 -8 -4 -20 -2 -27 3 -7 7 -1 10 15 6 29 1 36 -8 12z"/>
<path d="M2993 366 c-9 -11 -8 -15 6 -19 14 -3 17 0 14 14 -6 22 -5 22 -20 5z"/>
<path d="M3210 370 c0 -5 5 -10 10 -10 6 0 10 5 10 10 0 6 -4 10 -10 10 -5 0
-10 -4 -10 -10z"/>
<path d="M3650 323 c0 -5 5 -15 10 -23 8 -12 10 -11 10 8 0 12 -4 22 -10 22
-5 0 -10 -3 -10 -7z"/>
<path d="M3120 199 c0 -5 5 -7 10 -4 6 3 10 8 10 11 0 2 -4 4 -10 4 -5 0 -10
-5 -10 -11z"/>
<path d="M3120 170 c0 -5 -10 -10 -22 -10 -12 0 -19 -3 -15 -6 9 -9 57 5 57
16 0 6 -4 10 -10 10 -5 0 -10 -4 -10 -10z"/>
<path d="M3065 130 c3 -5 8 -10 11 -10 2 0 4 5 4 10 0 6 -5 10 -11 10 -5 0 -7
-4 -4 -10z"/>
<path d="M3097 126 c-4 -9 -13 -16 -21 -16 -8 0 -13 -7 -12 -15 1 -9 6 -15 12
-14 5 0 8 5 7 10 -2 5 3 9 11 9 19 0 27 13 17 29 -6 10 -10 9 -14 -3z"/>
<path d="M2965 89 c-4 -6 -5 -12 -2 -15 7 -7 37 7 37 17 0 13 -27 11 -35 -2z"/>
</g>
</svg>
